<svg xmlns="http://www.w3.org/2000/svg" xmlns:xlink="http://www.w3.org/1999/xlink" width="500" zoomAndPan="magnify" viewBox="0 0 375 374.999991" height="500" preserveAspectRatio="xMidYMid meet" version="1.0"><defs><g/></defs><g fill="#000000" fill-opacity="1"><g transform="translate(103.274418, 100.244716)"><g><path d="M 59.03125 0 L 46.234375 0 L 41.609375 -14.171875 L 18.046875 -14.171875 L 13.421875 0 L 0.921875 0 L 22.171875 -61.515625 L 37.78125 -61.515625 Z M 29.25 -48.6875 L 21.328125 -24.40625 L 38.25 -24.40625 L 30.296875 -48.6875 Z M 29.25 -48.6875 "/></g></g></g><g fill="#000000" fill-opacity="1"><g transform="translate(163.231327, 100.244716)"><g><path d="M 8 0 L 8 -61.515625 L 32.6875 -61.515625 C 39.0625 -61.515625 43.867188 -60.046875 47.109375 -57.109375 C 50.347656 -54.179688 51.96875 -50.140625 51.96875 -44.984375 C 51.96875 -41.253906 51.019531 -38.195312 49.125 -35.8125 C 47.226562 -33.425781 44.398438 -31.601562 40.640625 -30.34375 L 40.640625 -29.453125 C 42.578125 -28.609375 44.140625 -27.359375 45.328125 -25.703125 C 46.523438 -24.046875 47.65625 -21.59375 48.71875 -18.34375 L 54.875 0 L 42.375 0 L 36.359375 -18.390625 C 35.734375 -20.242188 35.035156 -21.679688 34.265625 -22.703125 C 33.492188 -23.722656 32.507812 -24.460938 31.3125 -24.921875 C 30.125 -25.390625 28.578125 -25.625 26.671875 -25.625 L 20.15625 -25.625 L 20.15625 0 Z M 31.21875 -35.265625 C 37.113281 -35.265625 40.0625 -38.007812 40.0625 -43.5 C 40.0625 -49.082031 37.113281 -51.875 31.21875 -51.875 L 20.15625 -51.875 L 20.15625 -35.265625 Z M 31.21875 -35.265625 "/></g></g></g><g fill="#000000" fill-opacity="1"><g transform="translate(220.747885, 100.244716)"><g><path d="M 49.3125 -61.515625 L 49.3125 -51.296875 L 31.5625 -51.296875 L 31.5625 0 L 19.4375 0 L 19.4375 -51.296875 L 1.6875 -51.296875 L 1.6875 -61.515625 Z M 49.3125 -61.515625 "/></g></g></g><g fill="#000000" fill-opacity="1"><g transform="translate(159.576286, 219.816755)"><g><path d="M 13.5 0 L 1.046875 0 L 19.265625 -31.640625 L 1.9375 -61.515625 L 14.859375 -61.515625 L 27.609375 -39.46875 L 28.65625 -39.46875 L 41.609375 -61.515625 L 53.90625 -61.515625 L 36.5625 -31.640625 L 54.78125 0 L 41.90625 0 L 28.234375 -23.734375 L 27.1875 -23.734375 Z M 13.5 0 "/></g></g></g><g fill="#000000" fill-opacity="1"><g transform="translate(17.38251, 339.388794)"><g><path d="M 8 0 L 8 -61.515625 L 32.6875 -61.515625 C 39.0625 -61.515625 43.867188 -60.046875 47.109375 -57.109375 C 50.347656 -54.179688 51.96875 -50.140625 51.96875 -44.984375 C 51.96875 -41.253906 51.019531 -38.195312 49.125 -35.8125 C 47.226562 -33.425781 44.398438 -31.601562 40.640625 -30.34375 L 40.640625 -29.453125 C 42.578125 -28.609375 44.140625 -27.359375 45.328125 -25.703125 C 46.523438 -24.046875 47.65625 -21.59375 48.71875 -18.34375 L 54.875 0 L 42.375 0 L 36.359375 -18.390625 C 35.734375 -20.242188 35.035156 -21.679688 34.265625 -22.703125 C 33.492188 -23.722656 32.507812 -24.460938 31.3125 -24.921875 C 30.125 -25.390625 28.578125 -25.625 26.671875 -25.625 L 20.15625 -25.625 L 20.15625 0 Z M 31.21875 -35.265625 C 37.113281 -35.265625 40.0625 -38.007812 40.0625 -43.5 C 40.0625 -49.082031 37.113281 -51.875 31.21875 -51.875 L 20.15625 -51.875 L 20.15625 -35.265625 Z M 31.21875 -35.265625 "/></g></g></g><g fill="#000000" fill-opacity="1"><g transform="translate(74.899068, 339.388794)"><g><path d="M 20.15625 -27.015625 L 20.15625 -10.1875 L 49.53125 -10.1875 L 49.53125 0 L 8 0 L 8 -61.515625 L 48.84375 -61.515625 L 48.84375 -51.328125 L 20.15625 -51.328125 L 20.15625 -36.9375 L 45.234375 -36.9375 L 45.234375 -27.015625 Z M 20.15625 -27.015625 "/></g></g></g><g fill="#000000" fill-opacity="1"><g transform="translate(127.787374, 339.388794)"><g><path d="M 27.265625 0.890625 C 23.003906 0.890625 19.207031 0.363281 15.875 -0.6875 C 12.550781 -1.738281 9.78125 -3.117188 7.5625 -4.828125 C 5.351562 -6.546875 3.660156 -8.429688 2.484375 -10.484375 L 9.171875 -18.640625 L 10.21875 -18.640625 C 12.070312 -15.890625 14.421875 -13.703125 17.265625 -12.078125 C 20.117188 -10.453125 23.453125 -9.640625 27.265625 -9.640625 C 30.515625 -9.640625 32.96875 -10.328125 34.625 -11.703125 C 36.28125 -13.078125 37.109375 -14.96875 37.109375 -17.375 C 37.109375 -18.832031 36.84375 -20.050781 36.3125 -21.03125 C 35.78125 -22.019531 34.894531 -22.863281 33.65625 -23.5625 C 32.425781 -24.257812 30.757812 -24.863281 28.65625 -25.375 L 20.75 -27.1875 C 15.21875 -28.445312 11.097656 -30.539062 8.390625 -33.46875 C 5.679688 -36.40625 4.328125 -40.210938 4.328125 -44.890625 C 4.328125 -48.367188 5.195312 -51.425781 6.9375 -54.0625 C 8.675781 -56.695312 11.207031 -58.742188 14.53125 -60.203125 C 17.851562 -61.671875 21.832031 -62.40625 26.46875 -62.40625 C 31.207031 -62.40625 35.265625 -61.78125 38.640625 -60.53125 C 42.023438 -59.28125 44.878906 -57.363281 47.203125 -54.78125 L 41.1875 -46.53125 L 40.140625 -46.53125 C 38.398438 -48.351562 36.40625 -49.71875 34.15625 -50.625 C 31.914062 -51.539062 29.351562 -52 26.46875 -52 C 23.125 -52 20.582031 -51.410156 18.84375 -50.234375 C 17.101562 -49.054688 16.234375 -47.429688 16.234375 -45.359375 C 16.234375 -43.421875 16.84375 -41.875 18.0625 -40.71875 C 19.289062 -39.570312 21.40625 -38.675781 24.40625 -38.03125 L 32.484375 -36.359375 C 38.453125 -35.085938 42.785156 -32.941406 45.484375 -29.921875 C 48.179688 -26.910156 49.53125 -22.984375 49.53125 -18.140625 C 49.53125 -14.296875 48.703125 -10.945312 47.046875 -8.09375 C 45.390625 -5.25 42.890625 -3.039062 39.546875 -1.46875 C 36.210938 0.101562 32.117188 0.890625 27.265625 0.890625 Z M 27.265625 0.890625 "/></g></g></g><g fill="#000000" fill-opacity="1"><g transform="translate(180.633592, 339.388794)"><g><path d="M 8 0 L 8 -61.515625 L 34.25 -61.515625 C 38.039062 -61.515625 41.242188 -60.914062 43.859375 -59.71875 C 46.484375 -58.53125 48.46875 -56.832031 49.8125 -54.625 C 51.164062 -52.425781 51.84375 -49.828125 51.84375 -46.828125 C 51.84375 -44.109375 51.179688 -41.707031 49.859375 -39.625 C 48.535156 -37.550781 46.644531 -35.882812 44.1875 -34.625 L 44.1875 -33.75 C 48.050781 -32.738281 51.035156 -30.898438 53.140625 -28.234375 C 55.242188 -25.566406 56.296875 -22.296875 56.296875 -18.421875 C 56.296875 -12.535156 54.519531 -7.992188 50.96875 -4.796875 C 47.425781 -1.597656 42.160156 0 35.171875 0 Z M 31.71875 -36.984375 C 37.382812 -36.984375 40.21875 -39.535156 40.21875 -44.640625 C 40.21875 -47.253906 39.515625 -49.195312 38.109375 -50.46875 C 36.710938 -51.75 34.582031 -52.390625 31.71875 -52.390625 L 20.15625 -52.390625 L 20.15625 -36.984375 Z M 33.953125 -9.640625 C 40.660156 -9.640625 44.015625 -12.679688 44.015625 -18.765625 C 44.015625 -24.878906 40.660156 -27.9375 33.953125 -27.9375 L 20.15625 -27.9375 L 20.15625 -9.640625 Z M 33.953125 -9.640625 "/></g></g></g><g fill="#000000" fill-opacity="1"><g transform="translate(240.800864, 339.388794)"><g><path d="M 59.03125 0 L 46.234375 0 L 41.609375 -14.171875 L 18.046875 -14.171875 L 13.421875 0 L 0.921875 0 L 22.171875 -61.515625 L 37.78125 -61.515625 Z M 29.25 -48.6875 L 21.328125 -24.40625 L 38.25 -24.40625 L 30.296875 -48.6875 Z M 29.25 -48.6875 "/></g></g></g><g fill="#000000" fill-opacity="1"><g transform="translate(300.757773, 339.388794)"><g><path d="M 8 0 L 8 -61.515625 L 20.15625 -61.515625 L 20.15625 -36.390625 L 21.5 -36.390625 L 42.03125 -61.515625 L 54.484375 -61.515625 L 54.484375 -60.46875 L 31.859375 -32.484375 L 56.84375 -1.046875 L 56.84375 0 L 43.09375 0 L 21.5 -26.546875 L 20.15625 -26.546875 L 20.15625 0 Z M 8 0 "/></g></g></g></svg>